<svg fill="white" id="Capa_1" enable-background="new 0 0 512.219 512.219" height="512" viewBox="0 0 512.219 512.219" width="512" xmlns="http://www.w3.org/2000/svg"><g><path d="m492.659 434.246h-36.938v-188.45c0-7.688-6.254-13.942-13.941-13.942h-114.134v-54.335c0-7.688-6.254-13.942-13.941-13.942h-115.191c-7.688 0-13.941 6.254-13.941 13.942v53.15c0 4.142 3.357 7.5 7.5 7.5s7.5-3.358 7.5-7.5v-52.092h113.074v255.67h-113.075v-171.616c0-4.142-3.357-7.5-7.5-7.5s-7.5 3.358-7.5 7.5v26.822h-114.134c-7.688 0-13.941 6.254-13.941 13.942v130.852h-36.937c-10.785 0-19.56 8.774-19.56 19.56v50.611c0 4.142 3.357 7.5 7.5 7.5h497.219c4.143 0 7.5-3.358 7.5-7.5v-50.611c0-10.786-8.775-19.561-19.56-19.561zm-421.162-129.793h113.075v129.793h-113.075zm425.722 192.465h-482.219v-43.111c0-2.515 2.045-4.56 4.56-4.56h352.625c4.143 0 7.5-3.358 7.5-7.5s-3.357-7.5-7.5-7.5h-44.538v-187.393h113.075v187.393h-36.575c-4.143 0-7.5 3.358-7.5 7.5s3.357 7.5 7.5 7.5h88.513c2.515 0 4.56 2.045 4.56 4.56v43.111z"/><path d="m211.511 91.728-5.945 34.664c-.868 5.056 1.171 10.071 5.321 13.086s9.548 3.406 14.092 1.019l31.131-16.367 31.131 16.367c1.976 1.038 4.112 1.551 6.239 1.551 2.763 0 5.507-.866 7.853-2.57 4.15-3.016 6.189-8.03 5.321-13.086l-5.945-34.665 25.187-24.55c3.673-3.581 4.971-8.836 3.385-13.715-1.585-4.879-5.724-8.369-10.801-9.106l-34.806-5.058-15.567-31.538c-2.27-4.601-6.867-7.459-11.998-7.459s-9.729 2.858-11.998 7.458l-15.565 31.539-34.806 5.058c-5.077.737-9.216 4.227-10.801 9.106-1.586 4.879-.288 10.134 3.385 13.715zm20.035-37.708c4.358-.633 8.125-3.37 10.074-7.319l14.489-29.359 14.489 29.359c1.949 3.949 5.716 6.686 10.075 7.319l32.399 4.708-23.445 22.854c-3.154 3.075-4.593 7.502-3.848 11.843l5.534 32.269-28.978-15.234c-3.9-2.052-8.556-2.051-12.454-.001l-28.979 15.235 5.535-32.269c.744-4.34-.694-8.768-3.849-11.843l-23.445-22.853z"/><path d="m364.685 71.175c0 4.142 3.357 7.5 7.5 7.5h10.741c4.143 0 7.5-3.358 7.5-7.5s-3.357-7.5-7.5-7.5h-10.741c-4.143 0-7.5 3.357-7.5 7.5z"/><path d="m359.26 26.282c1.036 0 2.09-.216 3.095-.672l9.781-4.439c3.771-1.712 5.441-6.158 3.729-9.929-1.711-3.771-6.157-5.441-9.929-3.73l-9.781 4.439c-3.771 1.712-5.441 6.158-3.729 9.929 1.255 2.766 3.981 4.402 6.834 4.402z"/><path d="m356.155 130.398 9.781 4.439c1.006.456 2.059.672 3.095.672 2.853 0 5.579-1.636 6.834-4.402 1.712-3.771.042-8.217-3.729-9.929l-9.781-4.439c-3.774-1.711-8.219-.041-9.929 3.73-1.712 3.771-.042 8.217 3.729 9.929z"/><path d="m130.293 78.675h10.741c4.143 0 7.5-3.358 7.5-7.5s-3.357-7.5-7.5-7.5h-10.741c-4.143 0-7.5 3.358-7.5 7.5s3.357 7.5 7.5 7.5z"/><path d="m141.083 21.17 9.781 4.439c1.006.456 2.059.672 3.095.672 2.853 0 5.579-1.636 6.834-4.402 1.712-3.771.042-8.217-3.729-9.929l-9.781-4.439c-3.775-1.712-8.219-.041-9.929 3.73-1.712 3.771-.042 8.217 3.729 9.929z"/><path d="m150.864 116.739-9.781 4.439c-3.771 1.712-5.441 6.158-3.729 9.929 1.255 2.767 3.981 4.402 6.834 4.402 1.036 0 2.09-.216 3.095-.672l9.781-4.439c3.771-1.712 5.441-6.158 3.729-9.929-1.711-3.771-6.156-5.44-9.929-3.73z"/></g></svg>